<svg width="534" height="534" viewBox="0 0 534 534" fill="none" xmlns="http://www.w3.org/2000/svg">
<defs><filter id="a" x="-20%" y="-20%" width="140%" height="140%"><feTurbulence baseFrequency="0.002 0.002" numOctaves="20" seed="3" stitchTiles="stitch" x="0%" y="0%" width="100%" height="100%" result="turbulence"/><feDisplacementMap in="SourceGraphic" in2="turbulence" scale="7" xChannelSelector="R" yChannelSelector="B" x="0%" y="0%" width="100%" height="100%" result="displacementMap"/><feGaussianBlur stdDeviation="3" x="0%" y="0%" width="100%" height="100%" in="displacementMap" result="blur"/><feColorMatrix values="1 0 0 0 0 0 1 0 0 0 0 0 1 0 0 0 0 0 7 -4" x="0%" y="0%" width="100%" height="100%" in="blur" result="colormatrix"/></filter></defs>
<path d="M273 189C261.459 190.855 249.896 191.334 238.222 191.778C229.814 192.097 221.401 192.275 213 192.778C210.029 192.956 206.663 192.794 204.222 194.778C191.679 204.969 183.47 218.297 182.111 234.778C179.209 269.966 187.29 304.082 211.778 330.556C233.926 354.5 263.761 370.33 296.778 369.833C318.74 369.503 338.718 364.306 357.056 351.889C364.764 346.669 372.023 340.319 375.5 331.444C379.154 322.116 378.294 310.837 378.444 301.056C378.807 277.463 377.546 254.873 366.389 233.611C358.544 218.661 348.085 201.31 333.111 192.556C303.39 175.18 265.895 176.204 232.5 174.5C218.714 173.797 204.274 171.726 194 182M237 241C240.309 239.721 243.508 238.582 247 238M320 244C317.726 242.346 315.537 241.306 314 239M252 290C260.18 307.933 282.29 319.795 301.556 320.778C315.104 321.469 329.297 321.452 342.389 317.444C346.668 316.135 351.933 314.134 354 310M240 138C239.344 131.728 238 125.319 238 119M272 148C278.813 136.321 282.697 123.384 290 112C296.642 101.646 303.221 91.2646 310 81C319.236 67.0148 328.539 52.0766 339 39M310 165C316.709 161.577 322.562 156.863 329 153M372 192C392.291 181.683 412.013 171.204 431.333 159.111C449.932 147.469 470.958 135.163 485 118M389 250C395.28 246.206 401.573 242.535 408 239M397 312C406.324 315.33 415.143 319.879 424.333 323.556C437.309 328.746 450.844 332.649 463.333 339C473.64 344.241 484.375 353.063 496 355M375 362C382.019 371.794 387.166 385.624 397 393M344 377C345.124 405.664 356.796 433.131 357.944 461.833C358.372 472.525 358 483.298 358 494M308 387C306.047 395.018 302.561 402.316 300 410M269 386C257.753 396.122 249.128 408.993 239.944 420.944C230.592 433.115 220.801 445.059 210.5 456.444C199.571 468.524 187.905 484.547 173 492M221 367C215.921 370.668 210.474 373.959 205 377M200 342C161.575 348.625 122.882 353.085 85 362.556C79.8451 363.844 76.0567 366.474 71.0556 368.111C62.167 371.02 53.2269 372.682 44 374M168 298C160.943 301.939 153.9 303 146 303M166 264C134.96 257.792 104.591 246.71 74.2222 237.889C62.6615 234.531 48.7484 232.374 38 227M167 214C164.996 213.218 163.047 212.585 161 212M177 170C169.719 148.884 162.964 125.605 151.111 106.556C142.684 93.0114 131.185 82.1851 120 71" filter="url(#a)" stroke="currentColor" stroke-width="7" stroke-linecap="round"/>
</svg>
