<svg id="Layer_1" data-name="Layer 1" xmlns="http://www.w3.org/2000/svg" viewBox="0 30 809.17 754.06"><defs><style>.cls-1{fill:current;}</style></defs><g id="Layer_2"><path class="cls-1" d="M155.18,569.6Q313.94,411.3,472.29,252.5Z" transform="translate(-30.68 -1.04)"/><path class="cls-1" d="M723.75,1q-126,125.7-251.46,251.46L723.75,1Z" transform="translate(-30.68 -1.04)"/><path class="cls-1" d="M30.68,755.1,399.46,386.33Q214.62,570.25,30.68,755.1Z" transform="translate(-30.68 -1.04)"/><path class="cls-1" d="M784.75,1,399.46,386.33Q592.59,194.15,784.75,1Z" transform="translate(-30.68 -1.04)"/><path class="cls-1" d="M428.51,420.28,339.18,509.6Q383.92,465,428.51,420.28Z" transform="translate(-30.68 -1.04)"/><path class="cls-1" d="M428.51,420.28,823.82,25C691,155.78,560.08,288.34,428.51,420.28Z" transform="translate(-30.68 -1.04)"/><path class="cls-1" d="M839.85,78,652.62,265.2Q746.4,171.75,839.85,78Z" transform="translate(-30.68 -1.04)"/><path class="cls-1" d="M255.68,662.1,652.62,265.2C520.09,397.27,387.32,529.11,255.68,662.1Z" transform="translate(-30.68 -1.04)"/><path class="cls-1" d="M839.85,179.93C724.71,295.06,609.45,409.34,494.68,525.1L839.85,179.93Z" transform="translate(-30.68 -1.04)"/><path class="cls-1" d="M814.75,1,184.18,631.6Q500.19,316.44,814.75,1Z" transform="translate(-30.68 -1.04)"/><path class="cls-1" d="M839.05,129.73C735,235.34,629,338.34,524.68,444.1" transform="translate(-30.68 -1.04)"/><path class="cls-1" d="M839,59.76C732,169.34,621,275.34,513.68,385.1" transform="translate(-30.68 -1.04)"/><path class="cls-1" d="M296.68,366.1,520.1,142.68C445.24,217,370.27,291,296.68,366.1Z" transform="translate(-30.68 -1.04)"/><path class="cls-1" d="M661.75,1,520.1,142.68Q591.17,72.16,661.75,1Z" transform="translate(-30.68 -1.04)"/><path class="cls-1" d="M199.68,402.1,393,208.84Q296.13,305.12,199.68,402.1Z" transform="translate(-30.68 -1.04)"/><path class="cls-1" d="M600.75,1,393,208.84C462.38,139.79,531.81,70.78,600.75,1Z" transform="translate(-30.68 -1.04)"/><path class="cls-1" d="M522.72,1Q465.54,58,408.18,115.6L522.75,1Z" transform="translate(-30.68 -1.04)"/><path class="cls-1" d="M251.18,272.6c52.32-52,104.68-104.54,157-157Z" transform="translate(-30.68 -1.04)"/><path class="cls-1" d="M483.68,571.1,723.09,331.7C643.08,411.26,562.82,490.62,483.68,571.1Z" transform="translate(-30.68 -1.04)"/><path class="cls-1" d="M839.85,214.93,723.09,331.7Q781.64,273.47,839.85,215Z" transform="translate(-30.68 -1.04)"/><path class="cls-1" d="M839,253.75c-42,41.59-85,84.59-126.86,126.85" transform="translate(-30.68 -1.04)"/><path class="cls-1" d="M395.68,89.1l45.84-45.83Q418.53,66.1,395.68,89.1Z" transform="translate(-30.68 -1.04)"/><path class="cls-1" d="M483.75,1,441.52,43.27Q462.73,22.19,483.88,1Z" transform="translate(-30.68 -1.04)"/></g><g id="Layer_3"><path class="cls-1" d="M429.18,392.6" transform="translate(-30.68 -1.04)"/><path class="cls-1" d="M427.18,392.6" transform="translate(-30.68 -1.04)"/><path class="cls-1" d="M427.18,454.6" transform="translate(-30.68 -1.04)"/><path class="cls-1" d="M427.68,461.1" transform="translate(-30.68 -1.04)"/><path class="cls-1" d="M427.18,519.6" transform="translate(-30.68 -1.04)"/><path class="cls-1" d="M427.18,451.6" transform="translate(-30.68 -1.04)"/><polygon class="cls-1" points="790.06 0 369 421.06 369 491.56 809.17 51.4 809.17 0 790.06 0"/><polygon class="cls-1" points="809.17 102.9 492 420.06 554.5 420.06 809.17 165.4 809.17 102.9"/><path class="cls-1" d="M516.18,249.6" transform="translate(-30.68 -1.04)"/><polygon class="cls-1" points="660.56 0 402.5 258.06 471 258.06 729.06 0 660.56 0"/><path class="cls-1" d="M488.18,180.6l38.5-38.5H412.18L286.43,267.85V334.6L441.3,179.72S491.35,177.43,488.18,180.6Z" transform="translate(-30.68 -1.04)"/><path class="cls-1" d="M735.18,432.6" transform="translate(-30.68 -1.04)"/><path class="cls-1" d="M423.18,285.6h66L223.68,551.1V480.6S420,282.43,423.18,285.6Z" transform="translate(-30.68 -1.04)"/></g></svg>
