<svg id="Layer_1" data-name="Layer 1" xmlns="http://www.w3.org/2000/svg" viewBox="0 0 368.51 553.58"><defs><style>.cls-1{fill:current;}</style></defs><polygon class="cls-1" points="123.72 383.24 6.74 420.15 0 453.61 88.92 537.14 121.85 526.91 148.51 406.52 123.72 383.24"/><polygon class="cls-1" points="266.48 519.62 148.6 553.58 124.48 529.43 152.36 410.66 185.45 400.97 274.25 486.52 266.48 519.62"/><polygon class="cls-1" points="169.29 338.97 198.81 219.91 231.79 211.09 320.71 294.62 312.56 328.13 194.07 362.25 169.29 338.97"/><polygon class="cls-1" points="313.65 475.08 340.18 355.31 314.57 332.74 197.77 367.99 190.16 401.62 281.1 484.9 313.65 475.08"/><polygon class="cls-1" points="242.82 168.47 360.82 134.92 368.51 101.67 282.01 15.63 248.8 24.91 218.71 144.49 242.82 168.47"/><polygon class="cls-1" points="102.82 30.57 221.62 0 245.04 24.83 213.78 142.76 180.42 151.5 94.11 63.44 102.82 30.57"/><polygon class="cls-1" points="193.91 219.17 160.99 337.34 127.78 345.21 41.28 259.17 50.39 225.91 169.81 195.19 193.91 219.17"/><polygon class="cls-1" points="57.25 79.23 27.3 198.19 52.25 221.48 170.01 189.59 178.58 156.19 90.07 70.34 57.25 79.23"/></svg>