<svg id="Layer_1" data-name="Layer 1" xmlns="http://www.w3.org/2000/svg" viewBox="0 0 506.93 553.58"><defs><style>.cls-1{fill:#c1eab6;}</style></defs><polygon class="cls-1" points="199.72 383.24 82.72 420.15 75.99 453.61 164.91 537.14 197.84 526.91 224.5 406.52 199.72 383.24"/><polygon class="cls-1" points="342.47 519.62 224.59 553.58 200.47 529.43 228.35 410.66 261.44 400.97 350.24 486.52 342.47 519.62"/><polygon class="cls-1" points="245.28 338.97 274.8 219.91 307.78 211.09 396.7 294.62 388.55 328.13 270.06 362.25 245.28 338.97"/><polygon class="cls-1" points="389.64 475.08 416.17 355.31 390.56 332.74 273.76 367.99 266.15 401.62 357.09 484.9 389.64 475.08"/><polygon class="cls-1" points="318.81 168.47 436.81 134.92 444.5 101.67 358 15.63 324.79 24.91 294.7 144.49 318.81 168.47"/><polygon class="cls-1" points="178.81 30.57 297.61 0 321.03 24.83 289.77 142.76 256.41 151.5 170.1 63.44 178.81 30.57"/><polygon class="cls-1" points="269.9 219.17 236.98 337.34 203.77 345.21 117.27 259.17 126.38 225.91 245.8 195.19 269.9 219.17"/><polygon class="cls-1" points="133.24 79.23 103.29 198.19 128.24 221.48 246 189.59 254.57 156.19 166.06 70.34 133.24 79.23"/><polygon class="cls-1" points="476.99 294.99 506.93 176.03 481.98 152.74 364.22 184.63 355.65 218.03 444.17 303.88 476.99 294.99"/><polygon class="cls-1" points="29.95 262.61 0 381.57 24.95 404.86 142.71 372.98 151.28 339.57 62.77 253.73 29.95 262.61"/></svg>