<?xml version="1.0" encoding="utf-8"?>
<!-- Generator: Adobe Illustrator 26.5.0, SVG Export Plug-In . SVG Version: 6.00 Build 0)  -->
<svg version="1.1" xmlns="http://www.w3.org/2000/svg" xmlns:xlink="http://www.w3.org/1999/xlink" x="0px" y="0px"
	 viewBox="0 0 216 216" style="enable-background:new 0 0 216 216;" xml:space="preserve">
<style type="text/css">
	.st0{stroke:#FFFFFF;stroke-width:8;stroke-miterlimit:10;}
	.st1{fill:#E9E9E9;}
	.st2{fill:url(#SVGID_1_);}
	.st3{fill:url(#SVGID_00000181079832948706059780000002694314071999815821_);}
	.st4{fill:url(#SVGID_00000133503727463361170030000013921909631702670233_);}
	.st5{fill:url(#SVGID_00000038385892829759196130000003128454899788190899_);}
	.st6{fill:url(#SVGID_00000002358342973856318090000009420694096953222546_);}
	.st7{fill:url(#SVGID_00000124135199524776168620000018435834840185292692_);}
	.st8{fill:url(#SVGID_00000152986063487747814630000010844504299808039825_);}
	.st9{fill:url(#SVGID_00000009586919743414293070000004277698064403144349_);}
	.st10{fill:#ED1C24;}
	.st11{fill:#FFFFFF;}
	.st12{fill:#D7D7D7;}
	.st13{display:none;}
</style>
<g id="Layer_1">
	
		<ellipse transform="matrix(0.7071 -0.7071 0.7071 0.7071 -44.7352 107.9999)" class="st0" cx="108" cy="108" rx="104.4" ry="104.4"/>
	<g>
		<path class="st1" d="M128.21,82.6v8.99h3.92c-1.95-2.6-3.27-5.66-3.74-8.99H128.21z"/>
		<path class="st1" d="M89.61,82.6c-0.47,3.32-1.78,6.39-3.74,8.99h3.92V82.6H89.61z"/>
		<path class="st1" d="M89.8,94.78c0,4.33,1.7,7.84,3.81,7.84h6.7v-5.53c0-2.21,1.76-4.01,3.94-4.01h9.52
			c2.18,0,3.94,1.79,3.94,4.01v5.53h6.7c2.1,0,3.81-3.51,3.81-7.84v-3.19H89.8V94.78z"/>
		<rect x="89.8" y="82.6" class="st1" width="38.41" height="8.99"/>
		<path class="st1" d="M166.17,82.6h-3.57c-1.3,5.98-6.83,10.48-13.47,10.48c-2.3,0-4.47-0.54-6.38-1.5
			c-0.14,0.01-0.27,0.01-0.41,0.01h-10.21c3.8,5.06,10,8.35,17,8.35c11.56,0,20.92-8.96,20.92-20.02c0-0.25-0.01-0.5-0.02-0.74
			C169.88,81.08,168.2,82.6,166.17,82.6z"/>
		<path class="st1" d="M149.13,59.88c0,0-0.01,0-0.01,0h0.03C149.14,59.88,149.14,59.88,149.13,59.88z"/>
		<path class="st1" d="M142.76,91.57c-3.59-1.8-6.24-5.07-7.09-8.98h-7.27c0.47,3.32,1.78,6.39,3.74,8.99h10.21
			C142.48,91.58,142.62,91.58,142.76,91.57z"/>
		<path class="st1" d="M75.02,91.56c-1.91,0.97-4.09,1.52-6.41,1.52c-6.63,0-12.17-4.5-13.47-10.48h-3.31
			c-2.03,0-3.71-1.51-3.88-3.42c-0.01,0.24-0.02,0.49-0.02,0.74c0,11.06,9.37,20.02,20.92,20.02c7,0,13.2-3.29,17-8.35H75.66
			C75.44,91.58,75.23,91.57,75.02,91.56z"/>
		<polygon class="st1" points="68.87,59.88 68.86,59.88 68.88,59.88 		"/>
		<path class="st1" d="M82.08,82.6c-0.84,3.89-3.49,7.16-7.06,8.96c0.21,0.02,0.42,0.03,0.64,0.03h10.21
			c1.95-2.6,3.27-5.66,3.74-8.99H82.08z"/>
		<path class="st1" d="M68.86,59.88H51.84c-2.14,0-3.89,1.68-3.89,3.72v15.26c0,0.1,0.01,0.2,0.02,0.3
			C48.37,68.46,57.57,59.89,68.86,59.88z"/>
		<path class="st1" d="M170.04,79.17c0.01-0.1,0.02-0.19,0.02-0.29V63.61c0-2.05-1.75-3.72-3.89-3.72h-17.02
			C160.44,59.89,169.63,68.46,170.04,79.17z"/>
		<path class="st1" d="M89.76,78.67h0.04v-0.05c0-4.33,1.7-7.84,3.81-7.84h30.8c2.1,0,3.81,3.51,3.81,7.84v0.05h0.04
			c0.67-10.48,9.75-18.78,20.87-18.79H68.88C80,59.89,89.09,68.19,89.76,78.67z"/>
		<path class="st1" d="M89.61,82.6h0.19v-2.66C89.79,80.84,89.73,81.73,89.61,82.6z"/>
		<path class="st1" d="M89.8,78.67h-0.04c0.03,0.4,0.04,0.8,0.04,1.21V78.67z"/>
		<path class="st1" d="M128.4,82.6c-0.12-0.88-0.19-1.78-0.19-2.69c0-0.42,0.02-0.83,0.04-1.24h-0.04v3.93H128.4z"/>
		<path class="st1" d="M128.21,78.62c0-4.33-1.71-7.84-3.81-7.84H93.6c-2.1,0-3.81,3.51-3.81,7.84v0.05h38.41V78.62z"/>
		<path class="st1" d="M89.8,79.91c0,0.01,0,0.02,0,0.03v2.66h38.41v-3.93H89.8v1.21C89.8,79.89,89.8,79.9,89.8,79.91z"/>
		<path class="st1" d="M128.25,78.67h7.19c0.65-6.69,6.53-11.92,13.69-11.92c7.6,0,13.75,5.89,13.75,13.16
			c0,0.92-0.1,1.82-0.29,2.69h3.57c2.04,0,3.72-1.52,3.88-3.43c-0.41-10.71-9.6-19.27-20.89-19.28h-0.03
			C138,59.89,128.92,68.19,128.25,78.67z"/>
		<path class="st1" d="M128.4,82.6h7.27c-0.19-0.87-0.29-1.77-0.29-2.69c0-0.42,0.02-0.83,0.06-1.24h-7.19
			c-0.03,0.41-0.04,0.82-0.04,1.24C128.21,80.82,128.27,81.72,128.4,82.6z"/>
		<path class="st1" d="M47.96,79.17c0.16,1.91,1.84,3.42,3.88,3.42h3.31c-0.19-0.87-0.29-1.77-0.29-2.69
			c0-7.27,6.16-13.16,13.75-13.16c7.16,0,13.04,5.24,13.69,11.92h7.45C89.09,68.19,80,59.89,68.88,59.88h-0.01
			C57.57,59.89,48.37,68.46,47.96,79.17z"/>
		<path class="st1" d="M82.08,82.6h7.53c0.12-0.87,0.19-1.76,0.19-2.66v-0.05c0-0.41-0.01-0.81-0.04-1.21h-7.45
			c0.04,0.41,0.06,0.82,0.06,1.24C82.37,80.83,82.27,81.73,82.08,82.6z"/>
		<path class="st1" d="M89.8,79.88v0.05c0-0.01,0-0.02,0-0.03C89.8,79.9,89.8,79.89,89.8,79.88z"/>
		<path class="st1" d="M100.3,109.34c0,2.21,1.76,4.01,3.94,4.01h9.52c2.18,0,3.94-1.79,3.94-4.01v-6.72H100.3V109.34z"/>
		<path class="st1" d="M113.76,93.08h-9.52c-2.18,0-3.94,1.79-3.94,4.01v5.53h17.41v-5.53C117.71,94.88,115.94,93.08,113.76,93.08z"
			/>
		<path class="st1" d="M68.61,93.07c2.31,0,4.49-0.55,6.41-1.52c-2.12-0.18-3.96-1.26-5.06-2.81c-0.44,0.06-0.89,0.09-1.35,0.09
			c-4.18,0-7.71-2.62-8.9-6.25h-4.56C56.44,88.58,61.98,93.07,68.61,93.07z"/>
		<path class="st1" d="M69.96,88.75c1.1,1.55,2.94,2.63,5.06,2.81c3.57-1.8,6.21-5.07,7.06-8.96h-4.56
			C76.46,85.82,73.54,88.25,69.96,88.75z"/>
		<path class="st1" d="M59.28,79.91c0-4.93,4.18-8.93,9.33-8.93c4.72,0,8.61,3.35,9.24,7.69h4.45c-0.65-6.69-6.53-11.92-13.69-11.92
			c-7.6,0-13.75,5.89-13.75,13.16c0,0.92,0.1,1.82,0.29,2.69h4.56C59.43,81.75,59.28,80.85,59.28,79.91z"/>
		<path class="st1" d="M77.95,79.91c0,0.94-0.15,1.84-0.43,2.69h4.56c0.19-0.87,0.29-1.77,0.29-2.69c0-0.42-0.02-0.83-0.06-1.24
			h-4.45C77.91,79.08,77.95,79.49,77.95,79.91z"/>
		<path class="st1" d="M149.13,88.73c-0.35,0-0.69-0.02-1.03-0.06c-1.13,1.65-3.09,2.78-5.34,2.9c1.91,0.96,4.07,1.5,6.38,1.5
			c6.63,0,12.17-4.5,13.47-10.48h-4.69C156.72,86.15,153.24,88.73,149.13,88.73z"/>
		<path class="st1" d="M148.1,88.67c-3.65-0.39-6.66-2.82-7.74-6.07h-4.69c0.85,3.91,3.5,7.17,7.09,8.98
			C145.01,91.45,146.97,90.32,148.1,88.67z"/>
		<path class="st1" d="M149.13,71.09c5.09,0,9.21,3.95,9.21,8.82c0,0.94-0.15,1.84-0.44,2.69h4.69c0.19-0.87,0.29-1.77,0.29-2.69
			c0-7.27-6.16-13.16-13.75-13.16c-7.16,0-13.04,5.24-13.69,11.92h4.57C140.64,74.39,144.48,71.09,149.13,71.09z"/>
		<path class="st1" d="M135.67,82.6h4.69c-0.28-0.85-0.44-1.75-0.44-2.69c0-0.42,0.03-0.83,0.09-1.24h-4.57
			c-0.04,0.41-0.06,0.82-0.06,1.24C135.38,80.83,135.48,81.73,135.67,82.6z"/>
		<path class="st1" d="M68.87,84.87c0-0.8,0.17-1.57,0.47-2.28h-9.64c1.19,3.62,4.73,6.25,8.9,6.25c0.46,0,0.91-0.03,1.35-0.09
			c-0.69-0.97-1.09-2.13-1.09-3.37V84.87z"/>
		
			<radialGradient id="SVGID_1_" cx="203.8212" cy="240.9465" r="47.2773" gradientTransform="matrix(0.291 0 0 0.2784 9.3009 12.8301)" gradientUnits="userSpaceOnUse">
			<stop  offset="0" style="stop-color:#0D98B6"/>
			<stop  offset="1" style="stop-color:#AEDFE5"/>
		</radialGradient>
		<path class="st2" d="M68.87,84.87c0-0.8,0.17-1.57,0.47-2.28h-9.64c1.19,3.62,4.73,6.25,8.9,6.25c0.46,0,0.91-0.03,1.35-0.09
			c-0.69-0.97-1.09-2.13-1.09-3.37V84.87z"/>
		<path class="st1" d="M77.52,82.6h-8.17c-0.31,0.71-0.47,1.47-0.47,2.28v0.51c0,1.24,0.4,2.4,1.09,3.37
			C73.54,88.25,76.46,85.82,77.52,82.6z"/>
		
			<radialGradient id="SVGID_00000033347682283598707880000001531938202407108498_" cx="203.8205" cy="240.9464" r="47.2733" gradientTransform="matrix(0.291 0 0 0.2784 9.3009 12.8301)" gradientUnits="userSpaceOnUse">
			<stop  offset="0" style="stop-color:#0D98B6"/>
			<stop  offset="1" style="stop-color:#AEDFE5"/>
		</radialGradient>
		<path style="fill:url(#SVGID_00000033347682283598707880000001531938202407108498_);" d="M77.52,82.6h-8.17
			c-0.31,0.71-0.47,1.47-0.47,2.28v0.51c0,1.24,0.4,2.4,1.09,3.37C73.54,88.25,76.46,85.82,77.52,82.6z"/>
		<path class="st1" d="M75.66,78.67h2.2c-0.63-4.35-4.53-7.69-9.24-7.69c-5.16,0-9.33,4-9.33,8.93c0,0.94,0.15,1.84,0.43,2.69h9.64
			C70.34,80.3,72.79,78.67,75.66,78.67z"/>
		
			<radialGradient id="SVGID_00000075856627488755999710000011025925840258368951_" cx="203.8223" cy="240.9458" r="47.2679" gradientTransform="matrix(0.291 0 0 0.2784 9.3009 12.8301)" gradientUnits="userSpaceOnUse">
			<stop  offset="0" style="stop-color:#0D98B6"/>
			<stop  offset="1" style="stop-color:#AEDFE5"/>
		</radialGradient>
		<path style="fill:url(#SVGID_00000075856627488755999710000011025925840258368951_);" d="M75.66,78.67h2.2
			c-0.63-4.35-4.53-7.69-9.24-7.69c-5.16,0-9.33,4-9.33,8.93c0,0.94,0.15,1.84,0.43,2.69h9.64C70.34,80.3,72.79,78.67,75.66,78.67z"
			/>
		<path class="st1" d="M69.35,82.6h8.17c0.28-0.85,0.43-1.75,0.43-2.69c0-0.42-0.03-0.83-0.09-1.24h-2.2
			C72.79,78.67,70.34,80.3,69.35,82.6z"/>
		
			<radialGradient id="SVGID_00000018221004773391500470000000863003690027097519_" cx="203.8219" cy="240.9451" r="47.2681" gradientTransform="matrix(0.291 0 0 0.2784 9.3009 12.8301)" gradientUnits="userSpaceOnUse">
			<stop  offset="0" style="stop-color:#0D98B6"/>
			<stop  offset="1" style="stop-color:#AEDFE5"/>
		</radialGradient>
		<path style="fill:url(#SVGID_00000018221004773391500470000000863003690027097519_);" d="M69.35,82.6h8.17
			c0.28-0.85,0.43-1.75,0.43-2.69c0-0.42-0.03-0.83-0.09-1.24h-2.2C72.79,78.67,70.34,80.3,69.35,82.6z"/>
		<path class="st1" d="M149.13,84.87v0.51c0,1.21-0.38,2.34-1.03,3.29c0.34,0.04,0.68,0.06,1.03,0.06c4.11,0,7.59-2.58,8.78-6.13
			h-9.25C148.96,83.3,149.13,84.07,149.13,84.87z"/>
		
			<radialGradient id="SVGID_00000153683184295281792220000003871473097462204840_" cx="480.523" cy="240.9465" r="47.2738" gradientTransform="matrix(0.291 0 0 0.2784 9.3009 12.8301)" gradientUnits="userSpaceOnUse">
			<stop  offset="0" style="stop-color:#0D98B6"/>
			<stop  offset="1" style="stop-color:#AEDFE5"/>
		</radialGradient>
		<path style="fill:url(#SVGID_00000153683184295281792220000003871473097462204840_);" d="M149.13,84.87v0.51
			c0,1.21-0.38,2.34-1.03,3.29c0.34,0.04,0.68,0.06,1.03,0.06c4.11,0,7.59-2.58,8.78-6.13h-9.25
			C148.96,83.3,149.13,84.07,149.13,84.87z"/>
		<path class="st1" d="M148.1,88.67c0.65-0.95,1.03-2.08,1.03-3.29v-0.51c0-0.8-0.17-1.57-0.47-2.28h-8.3
			C141.44,85.85,144.45,88.28,148.1,88.67z"/>
		
			<radialGradient id="SVGID_00000134218900555380785840000008146124163993887627_" cx="480.5229" cy="240.9456" r="47.282" gradientTransform="matrix(0.291 0 0 0.2784 9.3009 12.8301)" gradientUnits="userSpaceOnUse">
			<stop  offset="0" style="stop-color:#0D98B6"/>
			<stop  offset="1" style="stop-color:#AEDFE5"/>
		</radialGradient>
		<path style="fill:url(#SVGID_00000134218900555380785840000008146124163993887627_);" d="M148.1,88.67
			c0.65-0.95,1.03-2.08,1.03-3.29v-0.51c0-0.8-0.17-1.57-0.47-2.28h-8.3C141.44,85.85,144.45,88.28,148.1,88.67z"/>
		<path class="st1" d="M148.66,82.6h9.25c0.28-0.85,0.44-1.75,0.44-2.69c0-4.87-4.13-8.82-9.21-8.82c-4.65,0-8.49,3.3-9.12,7.58
			h2.34C145.21,78.67,147.67,80.3,148.66,82.6z"/>
		
			<radialGradient id="SVGID_00000105423147791337782640000011256827949974323866_" cx="480.5244" cy="240.9456" r="47.2699" gradientTransform="matrix(0.291 0 0 0.2784 9.3009 12.8301)" gradientUnits="userSpaceOnUse">
			<stop  offset="0" style="stop-color:#0D98B6"/>
			<stop  offset="1" style="stop-color:#AEDFE5"/>
		</radialGradient>
		<path style="fill:url(#SVGID_00000105423147791337782640000011256827949974323866_);" d="M148.66,82.6h9.25
			c0.28-0.85,0.44-1.75,0.44-2.69c0-4.87-4.13-8.82-9.21-8.82c-4.65,0-8.49,3.3-9.12,7.58h2.34
			C145.21,78.67,147.67,80.3,148.66,82.6z"/>
		<path class="st1" d="M142.35,78.67h-2.34c-0.06,0.41-0.09,0.82-0.09,1.24c0,0.94,0.15,1.84,0.44,2.69h8.3
			C147.67,80.3,145.21,78.67,142.35,78.67z"/>
		
			<radialGradient id="SVGID_00000083055566289515893330000010517019014185260222_" cx="480.525" cy="240.9451" r="47.2842" gradientTransform="matrix(0.291 0 0 0.2784 9.3009 12.8301)" gradientUnits="userSpaceOnUse">
			<stop  offset="0" style="stop-color:#0D98B6"/>
			<stop  offset="1" style="stop-color:#AEDFE5"/>
		</radialGradient>
		<path style="fill:url(#SVGID_00000083055566289515893330000010517019014185260222_);" d="M142.35,78.67h-2.34
			c-0.06,0.41-0.09,0.82-0.09,1.24c0,0.94,0.15,1.84,0.44,2.69h8.3C147.67,80.3,145.21,78.67,142.35,78.67z"/>
		<g>
			<g>
				<circle class="st10" cx="149.12" cy="79.94" r="13.68"/>
				<circle cx="149.12" cy="79.94" r="9.29"/>
			</g>
			<g>
				<circle class="st10" cx="68.58" cy="79.4" r="13.68"/>
				<circle cx="68.58" cy="79.4" r="9.29"/>
			</g>
		</g>
	</g>
	<g>
		<g>
			<path class="st11" d="M167.15,111.07c-1.92,0.16-3.84-0.79-4.75-2.54c-0.88-1.69-0.58-3.66,0.61-5.03
				c0.29-1.31,1.05-2.43,2.2-3.09l-61,29.17c-0.96,1.04-1.56,2.17-1.86,3.53c0.12,3.21,1.37,5.26,4.33,7.25
				c-1.66,0.79-3.32,1.59-4.97,2.38c0.12-3.82-1.06-6.09-4.33-8.29c0.27-0.13,0.53-0.25,0.8-0.38c-0.34-0.16-0.68-0.33-1.02-0.49
				c0.76-0.51,1.41-1.02,1.96-1.56L47.28,156.8c1.24-0.48,2.62-0.39,3.89,0.18c1.86-0.09,3.68,0.86,4.56,2.55
				c0.91,1.75,0.56,3.79-0.73,5.16c-0.35,1.27-1.14,2.34-2.32,2.94l0.03,0.05l60.86-29.11c1.39-1.47,2.05-3.13,2.15-5.35
				c-0.44-2.32-1.72-4-4.15-5.63c1.66-0.79,3.32-1.59,4.97-2.38c-0.13,3.81,1.06,6.09,4.33,8.29c-0.38,0.18-0.75,0.36-1.13,0.54
				c0.32,0.15,0.64,0.31,0.95,0.46c-0.8,0.54-1.48,1.07-2.04,1.64L171.24,111l-0.03-0.05c-0.04,0.02-0.08,0.04-0.12,0.06
				C169.87,111.6,168.45,111.58,167.15,111.07z M58.29,163.43c0.12-3.82-1.06-6.09-4.33-8.29c1.66-0.79,3.32-1.59,4.97-2.38
				c-0.13,3.82,1.06,6.09,4.33,8.29C61.61,161.85,59.95,162.64,58.29,163.43z M67.99,158.85c-2.39,1.14-5.3,0.21-6.49-2.07
				c-1.19-2.29-0.23-5.07,2.17-6.21c2.39-1.14,5.3-0.22,6.49,2.07C71.35,154.93,70.38,157.71,67.99,158.85z M72.87,156.52
				c0.13-3.82-1.06-6.09-4.33-8.29c1.66-0.79,3.31-1.59,4.97-2.38c-0.12,3.81,1.06,6.09,4.33,8.28
				C76.18,154.93,74.53,155.73,72.87,156.52z M82.4,151.96c-2.39,1.14-5.3,0.22-6.49-2.07c-1.19-2.29-0.23-5.07,2.17-6.21
				c2.39-1.14,5.3-0.21,6.49,2.07C85.76,148.04,84.79,150.82,82.4,151.96z M87.11,149.63c0.12-3.82-1.06-6.09-4.33-8.29
				c1.66-0.79,3.32-1.59,4.97-2.38c-0.12,3.82,1.06,6.09,4.33,8.29C90.43,148.05,88.77,148.84,87.11,149.63z M96.82,145.07
				c-2.39,1.14-5.3,0.21-6.49-2.07c-1.19-2.29-0.23-5.07,2.17-6.21c2.39-1.14,5.3-0.22,6.49,2.07
				C100.18,141.14,99.21,143.92,96.82,145.07z M113.4,131.96c1.19,2.29,0.22,5.07-2.17,6.21c-0.73,0.35-1.51,0.5-2.27,0.49
				c-0.77,0.02-1.56-0.14-2.29-0.49c-2.39-1.15-3.35-3.94-2.14-6.22c0.87-1.65,2.63-2.59,4.44-2.54
				C110.77,129.36,112.53,130.31,113.4,131.96z M125.64,131.28c-2.39,1.14-5.3,0.21-6.49-2.07c-1.19-2.29-0.22-5.07,2.17-6.21
				s5.3-0.21,6.49,2.07C129,127.35,128.04,130.14,125.64,131.28z M130.5,128.89c0.12-3.82-1.06-6.09-4.33-8.29
				c1.66-0.79,3.32-1.58,4.97-2.38c-0.13,3.81,1.06,6.09,4.33,8.28C133.81,127.3,132.15,128.09,130.5,128.89z M140.06,124.39
				c-2.39,1.14-5.3,0.21-6.49-2.07c-1.2-2.29-0.23-5.07,2.16-6.21c2.39-1.14,5.3-0.22,6.49,2.07
				C143.42,120.46,142.45,123.24,140.06,124.39z M144.91,122c0.13-3.82-1.06-6.09-4.33-8.29c1.66-0.79,3.32-1.59,4.97-2.38
				c-0.13,3.82,1.06,6.09,4.33,8.29C148.22,120.41,146.57,121.2,144.91,122z M154.47,117.49c-2.39,1.14-5.3,0.21-6.49-2.07
				c-1.2-2.29-0.23-5.07,2.17-6.21c2.39-1.14,5.3-0.21,6.49,2.07C157.83,113.57,156.86,116.35,154.47,117.49z M159.32,115.1
				c0.13-3.82-1.06-6.09-4.33-8.29c1.66-0.79,3.32-1.58,4.97-2.38c-0.12,3.82,1.06,6.09,4.33,8.29
				C162.64,113.52,160.98,114.31,159.32,115.1z"/>
			<path class="st11" d="M104.74,136.1c-1.2-2.29-0.23-5.07,2.17-6.21c0.66-0.32,1.36-0.47,2.06-0.49
				c-1.81-0.04-3.57,0.89-4.44,2.54c-1.2,2.29-0.24,5.07,2.14,6.22c0.74,0.36,1.52,0.51,2.29,0.49
				C107.22,138.62,105.57,137.69,104.74,136.1z"/>
			<path class="st11" d="M120.7,134.51c-0.32-0.15-0.64-0.31-0.95-0.46c-1.28,0.61-2.56,1.22-3.84,1.84
				c0.03-0.98-0.02-1.86-0.18-2.66c-0.1,2.22-0.75,3.88-2.15,5.35l5.08-2.43C119.22,135.58,119.9,135.04,120.7,134.51z"/>
			<path class="st11" d="M97.15,133.58c0.34,0.16,0.68,0.33,1.02,0.49c1.39-0.67,2.79-1.33,4.18-2c-0.01,0.36-0.01,0.71,0,1.04
				c0.3-1.36,0.9-2.49,1.86-3.53l-5.09,2.43C98.56,132.55,97.91,133.07,97.15,133.58z"/>
			<path class="st11" d="M47.08,163.67c-0.93-1.79-0.55-3.87,0.8-5.24l-0.8-1.53l0.2-0.09c-0.1,0.04-0.21,0.08-0.31,0.13
				c-2.57,1.23-3.39,4.63-1.84,7.6c1.55,2.97,4.89,4.38,7.46,3.15c0.03-0.02,0.07-0.04,0.1-0.05l-0.75-1.43
				C49.99,166.42,48.01,165.46,47.08,163.67z"/>
			<path class="st11" d="M55.01,164.7c-0.4,0.42-0.88,0.78-1.44,1.05c-0.53,0.25-1.08,0.4-1.63,0.46l0.75,1.43
				C53.87,167.03,54.66,165.97,55.01,164.7z"/>
			<path class="st11" d="M47.88,158.43c0.38-0.39,0.84-0.72,1.36-0.97c0.62-0.3,1.28-0.45,1.93-0.48c-1.27-0.56-2.65-0.66-3.89-0.18
				l-0.2,0.09L47.88,158.43z"/>
			<path class="st11" d="M165.48,100.26c-0.1,0.05-0.19,0.1-0.29,0.15l0.41-0.2l0.85,1.62c1.87-0.1,3.71,0.85,4.6,2.55
				c0.89,1.7,0.58,3.68-0.63,5.05l0.79,1.51c2.48-1.27,3.25-4.62,1.73-7.54C171.39,100.44,168.05,99.03,165.48,100.26z"/>
			<path class="st11" d="M168.89,110.6c-0.56,0.27-1.15,0.42-1.74,0.47c1.31,0.51,2.72,0.53,3.95-0.06
				c0.04-0.02,0.08-0.04,0.12-0.06l-0.79-1.51C170.01,109.91,169.5,110.31,168.89,110.6z"/>
			<path class="st11" d="M163,103.5c0.42-0.48,0.94-0.89,1.56-1.19c0.61-0.29,1.25-0.45,1.89-0.48l-0.85-1.62l-0.41,0.2
				C164.05,101.07,163.29,102.19,163,103.5z"/>
			<path class="st12" d="M58.94,152.77c-1.66,0.79-3.32,1.59-4.97,2.38c3.26,2.2,4.45,4.47,4.33,8.29c1.66-0.79,3.32-1.59,4.97-2.38
				C60,158.86,58.82,156.59,58.94,152.77z"/>
			<path class="st12" d="M131.14,118.23c-1.66,0.79-3.32,1.58-4.97,2.38c3.27,2.2,4.45,4.47,4.33,8.29
				c1.66-0.79,3.32-1.59,4.97-2.38C132.2,124.32,131.02,122.04,131.14,118.23z"/>
			<path class="st12" d="M115.74,132.11c1.34,0.64,2.67,1.29,4.01,1.93c0.38-0.18,0.75-0.36,1.13-0.54
				c-3.26-2.2-4.45-4.47-4.33-8.29c-1.66,0.79-3.32,1.58-4.97,2.38c2.43,1.63,3.71,3.31,4.15,5.63
				C115.74,132.87,115.75,132.5,115.74,132.11z"/>
			<path class="st12" d="M115.9,135.88c1.28-0.61,2.56-1.22,3.84-1.84c-1.34-0.64-2.67-1.29-4.01-1.93
				c0.01,0.39,0.01,0.76-0.01,1.12C115.88,134.03,115.94,134.9,115.9,135.88z"/>
			<path class="st12" d="M102.12,135.97c-1.32-0.63-2.63-1.27-3.95-1.9c-0.27,0.13-0.53,0.25-0.8,0.38c3.27,2.2,4.45,4.47,4.33,8.29
				c1.66-0.79,3.31-1.58,4.97-2.38c-2.96-1.99-4.21-4.04-4.33-7.25C102.16,133.96,102.08,134.91,102.12,135.97z"/>
			<path class="st12" d="M102.34,132.07c-1.39,0.67-2.79,1.33-4.18,2c1.32,0.63,2.63,1.27,3.95,1.9c-0.03-1.06,0.04-2.01,0.23-2.86
				C102.33,132.77,102.33,132.43,102.34,132.07z"/>
			<path class="st12" d="M87.76,138.97c-1.66,0.79-3.32,1.59-4.97,2.38c3.27,2.2,4.45,4.47,4.33,8.29c1.66-0.79,3.32-1.59,4.97-2.38
				C88.82,145.06,87.64,142.79,87.76,138.97z"/>
			<path class="st12" d="M73.52,145.86c-1.66,0.79-3.31,1.59-4.97,2.38c3.26,2.2,4.45,4.47,4.33,8.29c1.66-0.79,3.32-1.59,4.97-2.38
				C74.58,151.94,73.39,149.67,73.52,145.86z"/>
			<path class="st12" d="M145.56,111.33c-1.66,0.79-3.32,1.59-4.97,2.38c3.26,2.2,4.45,4.47,4.33,8.29
				c1.66-0.79,3.32-1.59,4.97-2.38C146.62,117.42,145.43,115.15,145.56,111.33z"/>
			<path class="st12" d="M159.97,104.44c-1.66,0.79-3.32,1.58-4.97,2.38c3.26,2.2,4.45,4.47,4.33,8.29
				c1.66-0.79,3.32-1.59,4.97-2.38C161.03,110.53,159.85,108.26,159.97,104.44z"/>
		</g>
		<g>
			<path class="st11" d="M171.03,156.96c0.04,0.02,0.08,0.04,0.12,0.06l0.03-0.05l-52.58-25.15c0.56,0.57,1.24,1.11,2.04,1.64
				c-0.32,0.15-0.64,0.31-0.96,0.46c0.38,0.18,0.75,0.36,1.13,0.54c-3.26,2.2-4.45,4.47-4.33,8.29c-1.66-0.79-3.32-1.58-4.97-2.38
				c2.43-1.63,3.71-3.31,4.15-5.63c-0.1-2.22-0.75-3.88-2.15-5.35l-60.86-29.11l-0.03,0.05c1.18,0.6,1.97,1.67,2.32,2.94
				c1.29,1.37,1.64,3.41,0.73,5.16c-0.88,1.69-2.71,2.64-4.56,2.56c-1.27,0.56-2.65,0.66-3.89,0.18l51.83,24.79
				c-0.55-0.54-1.2-1.05-1.96-1.56c0.34-0.16,0.68-0.33,1.02-0.49c-0.27-0.13-0.53-0.25-0.8-0.38c3.26-2.2,4.45-4.47,4.33-8.29
				c1.66,0.79,3.32,1.58,4.97,2.38c-2.96,1.99-4.21,4.04-4.33,7.25c0.3,1.35,0.9,2.49,1.86,3.52l61,29.17
				c-1.15-0.66-1.91-1.78-2.2-3.09c-1.19-1.37-1.49-3.33-0.6-5.03c0.91-1.75,2.83-2.7,4.75-2.54
				C168.38,156.39,169.79,156.37,171.03,156.96z M63.19,106.92c-3.26,2.2-4.45,4.47-4.33,8.29c-1.66-0.79-3.32-1.59-4.97-2.38
				c3.26-2.2,4.45-4.47,4.33-8.29C59.88,105.33,61.53,106.12,63.19,106.92z M70.08,115.33c-1.2,2.29-4.1,3.21-6.49,2.07
				c-2.39-1.14-3.36-3.93-2.17-6.21c1.19-2.29,4.1-3.22,6.49-2.07C70.3,110.26,71.27,113.04,70.08,115.33z M77.77,113.83
				c-3.26,2.2-4.45,4.47-4.33,8.29c-1.66-0.79-3.32-1.59-4.97-2.38c3.26-2.2,4.45-4.47,4.33-8.29
				C74.45,112.25,76.11,113.04,77.77,113.83z M84.49,122.22c-1.19,2.29-4.1,3.21-6.49,2.07c-2.39-1.14-3.36-3.92-2.17-6.21
				c1.19-2.29,4.1-3.21,6.49-2.07C84.72,117.15,85.69,119.93,84.49,122.22z M92.01,120.71c-3.26,2.2-4.45,4.47-4.33,8.29
				c-1.66-0.79-3.32-1.59-4.97-2.38c3.26-2.2,4.45-4.47,4.33-8.29C88.7,119.13,90.36,119.92,92.01,120.71z M98.91,129.12
				c-1.19,2.29-4.1,3.22-6.49,2.07c-2.39-1.14-3.36-3.92-2.17-6.21c1.19-2.29,4.1-3.21,6.49-2.07
				C99.13,124.05,100.1,126.83,98.91,129.12z M108.89,138.57c-1.81,0.04-3.57-0.89-4.44-2.54c-1.2-2.29-0.24-5.07,2.14-6.22
				c0.74-0.36,1.52-0.51,2.29-0.49c0.76-0.02,1.54,0.14,2.27,0.49c2.39,1.14,3.36,3.92,2.17,6.21
				C112.46,137.66,110.7,138.61,108.89,138.57z M127.73,142.9c-1.19,2.29-4.1,3.21-6.49,2.07c-2.39-1.14-3.36-3.92-2.17-6.21
				c1.19-2.29,4.1-3.21,6.49-2.07C127.96,137.84,128.93,140.62,127.73,142.9z M135.39,141.46c-3.26,2.19-4.45,4.47-4.33,8.29
				c-1.66-0.79-3.32-1.59-4.98-2.38c3.27-2.2,4.45-4.47,4.33-8.29C132.08,139.88,133.74,140.67,135.39,141.46z M142.15,149.8
				c-1.19,2.29-4.1,3.21-6.49,2.07c-2.39-1.14-3.36-3.93-2.17-6.21c1.19-2.29,4.1-3.21,6.49-2.07
				C142.38,144.73,143.34,147.51,142.15,149.8z M149.81,148.35c-3.26,2.2-4.45,4.47-4.33,8.29c-1.66-0.79-3.32-1.59-4.97-2.38
				c3.26-2.2,4.45-4.47,4.33-8.29C146.49,146.77,148.15,147.56,149.81,148.35z M156.56,156.69c-1.19,2.29-4.1,3.21-6.49,2.07
				c-2.39-1.14-3.36-3.93-2.16-6.21c1.19-2.29,4.1-3.21,6.49-2.07C156.79,151.62,157.76,154.4,156.56,156.69z M164.22,155.25
				c-3.26,2.19-4.45,4.47-4.33,8.28c-1.66-0.79-3.32-1.58-4.97-2.38c3.26-2.2,4.45-4.47,4.33-8.29
				C160.91,153.66,162.57,154.46,164.22,155.25z"/>
			<path class="st11" d="M104.66,131.87c-1.2,2.29-0.23,5.07,2.17,6.21c0.66,0.32,1.36,0.47,2.06,0.49
				c-1.81,0.04-3.57-0.89-4.44-2.54c-1.2-2.29-0.24-5.07,2.14-6.22c0.74-0.36,1.52-0.51,2.29-0.49
				C107.15,129.35,105.49,130.28,104.66,131.87z"/>
			<path class="st11" d="M120.63,133.46c-0.32,0.15-0.64,0.31-0.96,0.46c-1.28-0.61-2.56-1.22-3.84-1.84
				c0.03,0.98-0.02,1.86-0.18,2.66c-0.1-2.22-0.75-3.88-2.15-5.35l5.08,2.43C119.15,132.39,119.83,132.93,120.63,133.46z"/>
			<path class="st11" d="M97.08,134.39c0.34-0.16,0.68-0.33,1.02-0.49c1.39,0.67,2.79,1.33,4.18,2c-0.01-0.36-0.01-0.71,0-1.04
				c0.3,1.35,0.9,2.49,1.86,3.52l-5.09-2.43C98.49,135.42,97.84,134.9,97.08,134.39z"/>
			<path class="st11" d="M47.01,104.3c-0.93,1.79-0.55,3.87,0.8,5.24l-0.8,1.53l0.2,0.1c-0.1-0.04-0.21-0.08-0.31-0.13
				c-2.57-1.23-3.39-4.63-1.84-7.6c1.55-2.97,4.89-4.38,7.46-3.15c0.03,0.02,0.07,0.04,0.1,0.05l-0.75,1.43
				C49.91,101.56,47.94,102.51,47.01,104.3z"/>
			<path class="st11" d="M54.94,103.27c-0.4-0.42-0.88-0.78-1.44-1.05c-0.53-0.25-1.08-0.4-1.63-0.46l0.75-1.43
				C53.79,100.94,54.59,102.01,54.94,103.27z"/>
			<path class="st11" d="M47.81,109.54c0.38,0.39,0.84,0.72,1.36,0.97c0.62,0.3,1.28,0.45,1.93,0.48c-1.27,0.56-2.65,0.66-3.89,0.18
				l-0.2-0.1L47.81,109.54z"/>
			<path class="st11" d="M165.41,167.71c-0.1-0.05-0.19-0.1-0.29-0.15l0.41,0.2l0.85-1.62c1.87,0.1,3.71-0.85,4.6-2.55
				c0.89-1.7,0.58-3.68-0.62-5.05l0.79-1.51c2.47,1.28,3.25,4.62,1.73,7.54C171.32,167.53,167.98,168.94,165.41,167.71z"/>
			<path class="st11" d="M168.81,157.37c-0.56-0.27-1.15-0.42-1.74-0.47c1.31-0.51,2.72-0.53,3.95,0.06
				c0.04,0.02,0.08,0.04,0.12,0.06l-0.79,1.51C169.94,158.06,169.42,157.66,168.81,157.37z"/>
			<path class="st11" d="M162.92,164.47c0.42,0.48,0.94,0.89,1.56,1.18c0.61,0.29,1.25,0.45,1.89,0.48l-0.85,1.62l-0.41-0.2
				C163.97,166.9,163.22,165.78,162.92,164.47z"/>
			<path class="st12" d="M58.87,115.2c-1.66-0.79-3.32-1.59-4.97-2.38c3.26-2.2,4.45-4.47,4.33-8.29c1.66,0.79,3.32,1.59,4.97,2.38
				C59.93,109.11,58.74,111.38,58.87,115.2z"/>
			<path class="st12" d="M131.07,149.75c-1.66-0.79-3.32-1.59-4.98-2.38c3.27-2.2,4.45-4.47,4.33-8.29
				c1.66,0.79,3.32,1.59,4.97,2.38C132.13,143.66,130.94,145.93,131.07,149.75z"/>
			<path class="st12" d="M115.66,135.86c1.34-0.64,2.67-1.29,4.01-1.93c0.38,0.18,0.75,0.36,1.13,0.54
				c-3.26,2.2-4.45,4.47-4.33,8.29c-1.66-0.79-3.32-1.58-4.97-2.38c2.43-1.63,3.71-3.31,4.15-5.63
				C115.67,135.1,115.67,135.47,115.66,135.86z"/>
			<path class="st12" d="M115.83,132.09c1.28,0.61,2.56,1.23,3.84,1.84c-1.34,0.64-2.67,1.29-4.01,1.93
				c0.01-0.39,0.01-0.76-0.01-1.12C115.81,133.94,115.86,133.07,115.83,132.09z"/>
			<path class="st12" d="M102.04,132c-1.32,0.63-2.63,1.27-3.95,1.9c-0.27-0.13-0.53-0.25-0.8-0.38c3.26-2.2,4.45-4.47,4.33-8.29
				c1.66,0.79,3.32,1.58,4.97,2.38c-2.96,1.99-4.21,4.04-4.33,7.25C102.08,134.01,102.01,133.06,102.04,132z"/>
			<path class="st12" d="M102.27,135.9c-1.39-0.67-2.79-1.33-4.18-2c1.32-0.63,2.63-1.27,3.95-1.9c-0.03,1.06,0.04,2.01,0.23,2.87
				C102.26,135.2,102.26,135.54,102.27,135.9z"/>
			<path class="st12" d="M87.69,129c-1.66-0.79-3.32-1.59-4.97-2.38c3.26-2.2,4.45-4.47,4.33-8.29c1.66,0.79,3.32,1.59,4.97,2.38
				C88.75,122.91,87.56,125.18,87.69,129z"/>
			<path class="st12" d="M73.44,122.12c-1.66-0.79-3.32-1.59-4.97-2.38c3.26-2.2,4.45-4.47,4.33-8.29c1.66,0.79,3.32,1.59,4.97,2.38
				C74.5,116.03,73.32,118.3,73.44,122.12z"/>
			<path class="st12" d="M145.48,156.64c-1.66-0.79-3.32-1.59-4.97-2.38c3.26-2.2,4.45-4.47,4.33-8.29
				c1.66,0.79,3.32,1.59,4.97,2.38C146.55,150.55,145.36,152.82,145.48,156.64z"/>
			<path class="st12" d="M159.9,163.53c-1.66-0.79-3.32-1.58-4.97-2.38c3.26-2.2,4.45-4.47,4.33-8.29c1.66,0.79,3.32,1.59,4.97,2.38
				C160.96,157.44,159.77,159.72,159.9,163.53z"/>
		</g>
	</g>
	<g>
		<g>
			<path class="st11" d="M89.56,165.11l-6.1,6.83l-0.94,0.41c0.5-0.5,0.99-0.83,1.44-0.97c0.46-0.14,1.03-0.22,1.71-0.22
				c0.7,0,1.4,0.14,2.09,0.42c0.69,0.28,1.32,0.68,1.89,1.21c0.57,0.53,1.02,1.17,1.35,1.93s0.5,1.61,0.5,2.56
				c0,1.55-0.35,2.85-1.04,3.9c-0.69,1.05-1.62,1.85-2.78,2.38c-1.16,0.53-2.44,0.8-3.85,0.8c-1.42,0-2.71-0.27-3.87-0.8
				c-1.16-0.53-2.09-1.32-2.78-2.38c-0.69-1.05-1.04-2.35-1.04-3.9c0-1.01,0.21-1.94,0.63-2.81s0.94-1.67,1.55-2.43l5.45-6.94H89.56
				z M81.07,178.97c0.28,0.48,0.66,0.85,1.13,1.11c0.48,0.26,1.02,0.39,1.63,0.39c0.59,0,1.13-0.13,1.61-0.39s0.85-0.63,1.13-1.11
				c0.28-0.48,0.42-1.04,0.42-1.69c0-0.63-0.14-1.19-0.42-1.67c-0.28-0.49-0.66-0.86-1.13-1.13c-0.48-0.27-1.01-0.41-1.61-0.41
				c-0.61,0-1.16,0.13-1.63,0.41c-0.48,0.27-0.86,0.65-1.13,1.13c-0.28,0.49-0.42,1.04-0.42,1.67
				C80.65,177.93,80.79,178.49,81.07,178.97z"/>
			<path class="st11" d="M94.9,176.24c0.43-0.71,1-1.29,1.7-1.73c0.7-0.44,1.47-0.76,2.29-0.97c0.83-0.21,1.63-0.31,2.4-0.31
				c0.77,0,1.57,0.1,2.4,0.31c0.83,0.21,1.6,0.53,2.31,0.97c0.71,0.44,1.28,1.02,1.71,1.73s0.65,1.56,0.65,2.55
				c0,0.86-0.19,1.64-0.57,2.32c-0.38,0.68-0.9,1.27-1.57,1.75c-0.67,0.49-1.42,0.86-2.27,1.11c-0.85,0.25-1.74,0.38-2.67,0.38
				c-0.92,0-1.8-0.13-2.65-0.38c-0.85-0.25-1.6-0.62-2.27-1.11c-0.67-0.49-1.19-1.07-1.57-1.75c-0.38-0.68-0.57-1.46-0.57-2.32
				C94.25,177.81,94.47,176.96,94.9,176.24z M95.81,166.88c0.58-0.75,1.36-1.31,2.32-1.7c0.96-0.39,2.02-0.58,3.17-0.58
				c1.17,0,2.24,0.19,3.2,0.58c0.96,0.39,1.74,0.95,2.32,1.7c0.58,0.75,0.88,1.65,0.88,2.71c0,0.86-0.19,1.62-0.55,2.25
				c-0.37,0.64-0.86,1.17-1.48,1.59s-1.31,0.73-2.07,0.93c-0.76,0.2-1.52,0.3-2.29,0.3c-0.77,0-1.54-0.1-2.3-0.3
				c-0.76-0.2-1.44-0.51-2.05-0.93c-0.61-0.42-1.1-0.95-1.47-1.59c-0.37-0.64-0.55-1.39-0.55-2.25
				C94.93,168.53,95.22,167.62,95.81,166.88z M99.13,179.5c0.23,0.38,0.53,0.67,0.92,0.86c0.39,0.2,0.81,0.3,1.26,0.3
				c0.47,0,0.9-0.1,1.28-0.3c0.39-0.2,0.69-0.49,0.92-0.86c0.23-0.38,0.34-0.85,0.34-1.4c0-0.45-0.11-0.86-0.34-1.24
				s-0.53-0.67-0.92-0.89c-0.39-0.22-0.81-0.32-1.28-0.32c-0.45,0-0.87,0.11-1.26,0.32c-0.39,0.22-0.69,0.51-0.92,0.89
				s-0.34,0.79-0.34,1.24C98.79,178.65,98.9,179.12,99.13,179.5z M99.49,171.15c0.18,0.32,0.43,0.58,0.74,0.76
				c0.31,0.18,0.67,0.27,1.07,0.27c0.41,0,0.78-0.09,1.09-0.27c0.31-0.18,0.56-0.43,0.74-0.76c0.18-0.32,0.27-0.7,0.27-1.13
				c0-0.41-0.09-0.79-0.26-1.12s-0.41-0.59-0.73-0.77s-0.69-0.27-1.12-0.27c-0.4,0-0.76,0.09-1.08,0.27
				c-0.32,0.18-0.57,0.44-0.74,0.77c-0.17,0.33-0.26,0.71-0.26,1.12C99.22,170.45,99.31,170.83,99.49,171.15z"/>
			<path class="st11" d="M115.29,183.84c-0.9-0.34-1.66-0.82-2.28-1.43c-0.62-0.61-1.1-1.3-1.43-2.08c-0.33-0.77-0.5-1.58-0.5-2.4
				h4.48c0,0.61,0.14,1.12,0.41,1.54c0.27,0.41,0.63,0.72,1.09,0.92s0.94,0.3,1.44,0.3c0.54,0,1.01-0.08,1.42-0.24
				c0.4-0.16,0.72-0.42,0.96-0.78c0.23-0.36,0.35-0.8,0.35-1.32c0-0.4-0.08-0.76-0.24-1.08c-0.16-0.32-0.41-0.61-0.74-0.85
				s-0.75-0.43-1.25-0.55c-0.5-0.13-1.1-0.19-1.78-0.19v-2.32c1.24,0,2.38,0.1,3.42,0.31s1.94,0.53,2.71,0.97
				c0.77,0.44,1.37,1,1.78,1.69c0.41,0.68,0.62,1.5,0.62,2.46c0,1.1-0.3,2.07-0.89,2.9c-0.6,0.84-1.44,1.49-2.54,1.97
				c-1.1,0.48-2.42,0.72-3.97,0.72C117.21,184.36,116.19,184.19,115.29,183.84z M117.21,172.72c0.52,0,0.99-0.07,1.42-0.2
				c0.42-0.13,0.79-0.32,1.11-0.55c0.31-0.23,0.55-0.5,0.72-0.81c0.16-0.31,0.24-0.63,0.24-0.97c0-0.36-0.08-0.68-0.24-0.97
				s-0.4-0.51-0.7-0.66c-0.31-0.15-0.7-0.23-1.19-0.23c-0.72,0-1.31,0.21-1.78,0.62c-0.47,0.41-0.7,0.95-0.7,1.62h-4.19
				c0-1.12,0.27-2.12,0.82-3.01c0.55-0.89,1.33-1.59,2.33-2.11c1.01-0.51,2.18-0.77,3.51-0.77c1.42,0,2.63,0.23,3.62,0.7
				c0.99,0.47,1.74,1.1,2.25,1.89c0.51,0.79,0.77,1.67,0.77,2.65c0,1.08-0.36,1.98-1.07,2.7c-0.71,0.72-1.67,1.26-2.88,1.62
				c-1.21,0.36-2.56,0.54-4.05,0.54V172.72z"/>
			<path class="st11" d="M135.51,175.2c0.5-0.56,0.94-1.06,1.31-1.51c0.37-0.45,0.65-0.9,0.84-1.34c0.19-0.44,0.28-0.91,0.28-1.42
				c0-0.29-0.05-0.58-0.16-0.86c-0.11-0.29-0.27-0.54-0.49-0.77c-0.22-0.22-0.49-0.4-0.81-0.54c-0.32-0.13-0.7-0.2-1.13-0.2
				c-0.58,0-1.08,0.14-1.53,0.43c-0.44,0.29-0.77,0.69-1,1.22c-0.23,0.52-0.34,1.12-0.34,1.81H128c0-1.35,0.28-2.58,0.84-3.7
				c0.56-1.12,1.4-2.01,2.52-2.67s2.5-1,4.12-1c1.17,0,2.21,0.18,3.11,0.53c0.9,0.35,1.65,0.82,2.25,1.4
				c0.6,0.58,1.06,1.23,1.36,1.93c0.31,0.7,0.46,1.41,0.46,2.13c0,1.03-0.25,1.97-0.76,2.82c-0.5,0.86-1.16,1.63-1.97,2.34
				l-4.4,3.94h7.56v4.19h-16.01L135.51,175.2z"/>
		</g>
	</g>
	<g>
		<g>
		</g>
	</g>
	<g>
		<g>
			<path class="st11" d="M40.52,165.04c0.3,0.06,0.57,0.22,0.81,0.47c0.24,0.26,0.38,0.54,0.42,0.84c0.04,0.3-0.04,0.55-0.25,0.75
				c-0.21,0.2-0.46,0.28-0.77,0.22c-0.31-0.05-0.58-0.21-0.83-0.48c-0.24-0.26-0.38-0.55-0.42-0.86c-0.04-0.31,0.05-0.57,0.26-0.76
				C39.95,165.04,40.21,164.97,40.52,165.04z M39.84,168.38c-1.33,1.27-2.66,2.55-3.99,3.82c-0.53-0.55-1.05-1.11-1.57-1.68
				c1.36-1.24,2.72-2.48,4.07-3.73C38.85,167.33,39.34,167.86,39.84,168.38z"/>
			<path class="st11" d="M39.6,175.91c-0.56-0.53-1.12-1.07-1.67-1.61c1.29-1.31,2.58-2.62,3.87-3.93c0.52,0.52,1.05,1.02,1.58,1.52
				C42.12,173.23,40.86,174.57,39.6,175.91z M43.43,174.18c-0.06-0.13-0.17-0.26-0.31-0.4c-0.16-0.15-0.34-0.24-0.52-0.29
				c-0.19-0.05-0.38-0.03-0.57,0.04c-0.19,0.07-0.38,0.21-0.56,0.4c0.01-0.28,0.03-0.56,0.04-0.84c0.3-0.32,0.65-0.53,1.04-0.63
				c0.39-0.1,0.78-0.11,1.17-0.03c0.39,0.09,0.72,0.25,0.99,0.5c0.18,0.16,0.33,0.35,0.44,0.56c0.11,0.21,0.17,0.41,0.16,0.59
				c-0.58,0.18-1.16,0.35-1.75,0.51C43.53,174.45,43.49,174.31,43.43,174.18z"/>
			<path class="st11" d="M46.2,176.08c0.53-0.11,1.1-0.07,1.7,0.11c0.6,0.18,1.18,0.5,1.75,0.95c0.57,0.45,1,0.94,1.31,1.47
				c0.31,0.54,0.47,1.08,0.49,1.62c0.01,0.55-0.15,1.06-0.49,1.53c-0.34,0.47-0.77,0.77-1.31,0.92c-0.53,0.14-1.11,0.13-1.74-0.04
				c-0.63-0.17-1.24-0.5-1.84-0.97c-0.6-0.47-1.06-1-1.38-1.58c-0.32-0.57-0.47-1.14-0.45-1.69c0.02-0.55,0.22-1.05,0.59-1.48
				C45.21,176.47,45.67,176.19,46.2,176.08z M46.31,179.11c-0.01,0.25,0.04,0.5,0.16,0.74c0.12,0.24,0.3,0.45,0.53,0.64
				c0.23,0.18,0.48,0.3,0.74,0.36c0.26,0.06,0.51,0.06,0.75-0.02c0.24-0.07,0.44-0.23,0.62-0.45c0.17-0.23,0.27-0.47,0.28-0.72
				c0.01-0.25-0.04-0.5-0.16-0.73c-0.12-0.23-0.29-0.44-0.51-0.62c-0.23-0.18-0.47-0.3-0.72-0.36c-0.25-0.06-0.5-0.06-0.75,0.01
				c-0.25,0.07-0.46,0.21-0.64,0.44C46.42,178.62,46.33,178.86,46.31,179.11z"/>
			<path class="st11" d="M57.01,184.22c-0.03-0.23-0.19-0.43-0.48-0.62c-0.19-0.12-0.38-0.2-0.57-0.23c-0.19-0.03-0.37,0-0.53,0.07
				c-0.16,0.07-0.31,0.2-0.42,0.38c-0.61,0.94-1.23,1.87-1.84,2.81c-0.64-0.42-1.27-0.85-1.9-1.28c1.05-1.52,2.09-3.03,3.14-4.55
				c0.6,0.41,1.19,0.82,1.8,1.21c-0.15,0.23-0.3,0.46-0.45,0.69c0.33-0.15,0.67-0.2,1.04-0.17c0.37,0.04,0.75,0.18,1.16,0.44
				c0.69,0.43,1.1,0.89,1.22,1.4c0.13,0.51,0.02,1.05-0.31,1.62c-0.6,1.02-1.21,2.04-1.81,3.06c-0.67-0.4-1.34-0.81-2.01-1.23
				c0.59-0.95,1.19-1.9,1.78-2.85C56.98,184.7,57.05,184.45,57.01,184.22z"/>
			<path class="st11" d="M61.35,191.48c-0.65-0.35-1.3-0.7-1.95-1.06c0.9-1.61,1.79-3.22,2.69-4.83c0.61,0.34,1.23,0.67,1.84,1
				C63.07,188.23,62.21,189.85,61.35,191.48z M64.53,188.76c-0.09-0.11-0.22-0.21-0.39-0.29c-0.19-0.1-0.37-0.14-0.56-0.13
				c-0.19,0.01-0.36,0.08-0.53,0.2c-0.16,0.12-0.3,0.3-0.43,0.53c-0.05-0.27-0.11-0.54-0.16-0.81c0.21-0.39,0.48-0.69,0.82-0.89
				c0.34-0.21,0.7-0.33,1.09-0.35c0.38-0.03,0.73,0.04,1.05,0.2c0.21,0.11,0.39,0.24,0.55,0.41c0.16,0.17,0.25,0.34,0.29,0.52
				c-0.5,0.33-1.01,0.65-1.52,0.98C64.69,188.99,64.62,188.87,64.53,188.76z"/>
			<path class="st11" d="M67.07,194.01c-0.43-0.45-0.69-0.94-0.79-1.46c-0.1-0.52-0.02-1.05,0.23-1.58c0.25-0.54,0.61-0.94,1.05-1.2
				c0.45-0.27,0.97-0.39,1.56-0.38c0.59,0.01,1.23,0.17,1.91,0.46c0.68,0.29,1.22,0.63,1.61,1.02c0.39,0.4,0.64,0.83,0.74,1.32
				c0.1,0.49,0.05,1.01-0.16,1.56c-0.03,0.08-0.06,0.16-0.09,0.24c-0.03,0.08-0.06,0.14-0.1,0.19c-1.88-0.72-3.74-1.5-5.58-2.34
				c0.14-0.31,0.28-0.61,0.42-0.92c1.23,0.56,2.47,1.1,3.72,1.6c-0.23,0.11-0.46,0.21-0.69,0.32c0.07-0.03,0.13-0.08,0.19-0.15
				c0.06-0.07,0.1-0.12,0.13-0.18c0.09-0.22,0.12-0.43,0.09-0.64c-0.03-0.2-0.11-0.38-0.25-0.55c-0.14-0.16-0.32-0.29-0.55-0.39
				c-0.29-0.13-0.56-0.18-0.81-0.15c-0.25,0.02-0.47,0.12-0.67,0.3c-0.2,0.18-0.38,0.43-0.54,0.77c-0.14,0.31-0.2,0.59-0.19,0.86
				c0.01,0.27,0.1,0.5,0.26,0.71c0.16,0.21,0.4,0.38,0.72,0.51c0.36,0.15,0.69,0.23,0.99,0.22c0.3-0.01,0.57-0.09,0.82-0.25
				c0.55,0.37,1.11,0.73,1.67,1.08c-0.52,0.38-1.11,0.59-1.77,0.62c-0.66,0.03-1.39-0.12-2.19-0.46
				C68.08,194.85,67.5,194.46,67.07,194.01z"/>
			<path class="st11" d="M77.39,189.46c0.28-0.09,0.57-0.09,0.88,0.02c0.31,0.11,0.55,0.28,0.71,0.53c0.16,0.24,0.2,0.5,0.11,0.77
				c-0.09,0.27-0.27,0.46-0.55,0.56c-0.28,0.1-0.58,0.1-0.9-0.01c-0.31-0.11-0.55-0.29-0.71-0.54c-0.16-0.25-0.19-0.51-0.1-0.79
				C76.92,189.74,77.11,189.55,77.39,189.46z M78.23,192.69c-0.58,1.75-1.16,3.49-1.74,5.24c-0.68-0.22-1.35-0.46-2.03-0.7
				c0.62-1.73,1.24-3.47,1.85-5.2C76.95,192.26,77.59,192.48,78.23,192.69z"/>
			<path class="st11" d="M80.45,194.57c0.4-0.31,0.85-0.51,1.35-0.58c0.5-0.07,1-0.04,1.5,0.09c0.52,0.14,0.94,0.36,1.29,0.68
				c0.34,0.31,0.58,0.7,0.72,1.16c0.14,0.46,0.14,0.98,0,1.57c-0.14,0.58-0.38,1.04-0.72,1.39c-0.34,0.35-0.75,0.58-1.22,0.69
				c-0.47,0.11-0.99,0.09-1.53-0.06c-0.53-0.14-1-0.38-1.41-0.72c-0.41-0.34-0.7-0.75-0.87-1.24c-0.17-0.49-0.16-1.02,0.02-1.61
				C79.75,195.34,80.05,194.88,80.45,194.57z M80.83,199.66c-0.03,0.22-0.01,0.43,0.08,0.61c0.09,0.18,0.23,0.34,0.43,0.47
				c0.2,0.13,0.44,0.24,0.72,0.31c0.31,0.08,0.6,0.1,0.88,0.05c0.28-0.05,0.52-0.17,0.72-0.35c0.2-0.18,0.34-0.44,0.42-0.77
				c0.43-1.75,0.86-3.5,1.29-5.24c0.65,0.16,1.3,0.31,1.95,0.46c-0.39,1.76-0.79,3.51-1.18,5.27c-0.15,0.69-0.44,1.21-0.88,1.56
				c-0.43,0.35-0.95,0.56-1.55,0.63c-0.6,0.06-1.25,0.01-1.94-0.17c-0.82-0.22-1.48-0.51-1.95-0.86c-0.48-0.35-0.8-0.75-0.95-1.18
				c-0.16-0.44-0.19-0.89-0.1-1.38C79.45,199.27,80.14,199.47,80.83,199.66z M81.75,197.32c0.08,0.23,0.23,0.43,0.43,0.6
				c0.2,0.16,0.45,0.28,0.72,0.35c0.24,0.06,0.49,0.08,0.74,0.04c0.25-0.04,0.48-0.14,0.67-0.29c0.2-0.16,0.33-0.38,0.4-0.67
				c0.05-0.22,0.06-0.42,0.01-0.6c-0.05-0.18-0.13-0.35-0.24-0.49c-0.11-0.14-0.25-0.27-0.41-0.36c-0.16-0.1-0.32-0.17-0.49-0.21
				c-0.27-0.07-0.53-0.09-0.79-0.05c-0.25,0.04-0.48,0.14-0.66,0.29c-0.19,0.16-0.32,0.37-0.4,0.65
				C81.67,196.84,81.67,197.09,81.75,197.32z"/>
			<path class="st11" d="M93.38,197.76c-0.12-0.2-0.34-0.32-0.67-0.37c-0.22-0.04-0.42-0.03-0.6,0.02
				c-0.18,0.05-0.33,0.14-0.44,0.28c-0.12,0.13-0.2,0.31-0.23,0.52c-0.19,1.1-0.38,2.21-0.58,3.31c-0.73-0.13-1.45-0.26-2.18-0.4
				c0.36-1.81,0.71-3.61,1.07-5.42c0.69,0.13,1.37,0.26,2.06,0.38c-0.05,0.27-0.09,0.54-0.14,0.82c0.23-0.27,0.52-0.46,0.86-0.57
				c0.34-0.11,0.74-0.13,1.2-0.06c0.78,0.12,1.32,0.38,1.63,0.79c0.31,0.41,0.42,0.95,0.34,1.61c-0.15,1.17-0.3,2.35-0.45,3.52
				c-0.76-0.1-1.51-0.2-2.26-0.32c0.17-1.11,0.34-2.21,0.5-3.32C93.53,198.22,93.49,197.96,93.38,197.76z"/>
			<path class="st11" d="M100.04,202.68c-0.72-0.06-1.44-0.12-2.16-0.19c0.19-1.83,0.37-3.66,0.56-5.49
				c0.68,0.07,1.36,0.13,2.04,0.18C100.33,199.01,100.19,200.84,100.04,202.68z M101.85,198.92c-0.12-0.06-0.28-0.1-0.46-0.11
				c-0.2-0.01-0.39,0.02-0.55,0.1c-0.16,0.08-0.3,0.21-0.4,0.39c-0.1,0.18-0.16,0.4-0.18,0.66c-0.15-0.22-0.3-0.45-0.45-0.67
				c0.04-0.44,0.17-0.82,0.4-1.15c0.23-0.33,0.51-0.58,0.84-0.75c0.34-0.18,0.67-0.25,1.02-0.23c0.23,0.01,0.44,0.07,0.65,0.16
				c0.21,0.09,0.36,0.21,0.46,0.36c-0.32,0.5-0.65,1-0.99,1.5C102.08,199.07,101.97,198.98,101.85,198.92z"/>
			<path class="st11" d="M105.01,198.66c0.33-0.42,0.77-0.75,1.32-0.98c0.56-0.23,1.17-0.34,1.86-0.35c0.69,0,1.3,0.11,1.85,0.34
				c0.55,0.23,0.99,0.55,1.33,0.97c0.33,0.42,0.52,0.92,0.54,1.51c0.02,0.57-0.12,1.09-0.43,1.53c-0.32,0.44-0.76,0.79-1.33,1.05
				c-0.57,0.25-1.22,0.38-1.95,0.38c-0.73,0-1.38-0.12-1.96-0.38c-0.58-0.25-1.02-0.6-1.33-1.04c-0.31-0.44-0.45-0.95-0.43-1.53
				C104.5,199.59,104.68,199.08,105.01,198.66z M106.87,200.96c0.14,0.21,0.32,0.37,0.55,0.48c0.23,0.11,0.49,0.17,0.77,0.17
				c0.28,0,0.53-0.06,0.76-0.17c0.23-0.11,0.42-0.28,0.55-0.48c0.13-0.21,0.2-0.45,0.19-0.74c-0.01-0.29-0.08-0.53-0.22-0.74
				c-0.14-0.21-0.32-0.36-0.55-0.47c-0.23-0.11-0.48-0.16-0.75-0.16c-0.28,0-0.53,0.06-0.75,0.17c-0.22,0.11-0.41,0.27-0.55,0.48
				c-0.14,0.21-0.22,0.45-0.22,0.74C106.67,200.51,106.73,200.76,106.87,200.96z"/>
			<path class="st11" d="M116.45,202.63c-0.73,0.06-1.46,0.12-2.19,0.16c-0.2-3.11-0.39-6.23-0.59-9.34
				c0.66-0.04,1.32-0.09,1.98-0.15C115.92,196.42,116.18,199.53,116.45,202.63z M121.27,200.9c-0.24,0.46-0.59,0.84-1.03,1.12
				c-0.45,0.28-0.95,0.45-1.5,0.51c-0.55,0.06-1.05-0.01-1.51-0.2c-0.46-0.19-0.82-0.49-1.11-0.9c-0.28-0.41-0.45-0.91-0.49-1.5
				c-0.05-0.6,0.03-1.12,0.24-1.57c0.21-0.45,0.5-0.8,0.89-1.07c0.39-0.27,0.84-0.43,1.36-0.49c0.52-0.06,1.02,0,1.49,0.17
				c0.48,0.17,0.89,0.44,1.24,0.82c0.35,0.38,0.57,0.88,0.65,1.5C121.59,199.9,121.51,200.44,121.27,200.9z M118.97,198.86
				c-0.16-0.19-0.37-0.34-0.61-0.43c-0.24-0.09-0.5-0.12-0.78-0.09c-0.24,0.02-0.47,0.1-0.69,0.23c-0.22,0.13-0.39,0.31-0.52,0.53
				c-0.13,0.22-0.18,0.48-0.16,0.78c0.03,0.29,0.12,0.54,0.29,0.74c0.17,0.2,0.38,0.34,0.62,0.43c0.24,0.09,0.49,0.12,0.74,0.1
				c0.29-0.03,0.54-0.11,0.77-0.25c0.23-0.14,0.4-0.32,0.51-0.55c0.12-0.23,0.16-0.48,0.13-0.77
				C119.24,199.29,119.14,199.05,118.97,198.86z"/>
			<path class="st11" d="M123.52,197.44c0.24-0.48,0.61-0.88,1.11-1.21c0.5-0.33,1.09-0.56,1.76-0.7c0.67-0.13,1.3-0.14,1.89-0.03
				c0.59,0.12,1.09,0.35,1.5,0.7c0.41,0.35,0.69,0.8,0.82,1.37c0.13,0.56,0.09,1.09-0.13,1.58c-0.22,0.5-0.59,0.92-1.11,1.28
				c-0.51,0.36-1.13,0.61-1.85,0.75c-0.72,0.14-1.38,0.14-2,0.01c-0.61-0.13-1.12-0.39-1.51-0.76c-0.39-0.37-0.63-0.85-0.72-1.42
				C123.2,198.45,123.28,197.92,123.52,197.44z M125.8,199.34c0.18,0.17,0.39,0.3,0.64,0.36c0.25,0.07,0.51,0.07,0.79,0.02
				c0.27-0.05,0.51-0.16,0.72-0.32c0.21-0.16,0.36-0.35,0.45-0.58c0.09-0.23,0.11-0.48,0.05-0.76c-0.06-0.28-0.18-0.51-0.36-0.68
				c-0.18-0.18-0.39-0.29-0.64-0.36c-0.25-0.06-0.5-0.07-0.77-0.02c-0.27,0.05-0.51,0.16-0.71,0.31c-0.2,0.15-0.35,0.34-0.45,0.57
				c-0.1,0.23-0.13,0.49-0.07,0.77C125.51,198.94,125.63,199.17,125.8,199.34z"/>
			<path class="st11" d="M135.42,193.42c0.15,0.48,0.29,0.96,0.44,1.44c-1.38,0.42-2.77,0.8-4.17,1.16
				c-0.12-0.48-0.25-0.97-0.37-1.45C132.69,194.21,134.06,193.83,135.42,193.42z M133.8,191.89c0.69,2.38,1.39,4.76,2.08,7.15
				c-0.68,0.2-1.36,0.39-2.04,0.57c-0.64-2.4-1.28-4.79-1.93-7.19C132.54,192.25,133.17,192.08,133.8,191.89z"/>
			<path class="st11" d="M136.47,190.17c0.17-0.24,0.4-0.42,0.71-0.52c0.31-0.11,0.61-0.11,0.88-0.02c0.28,0.09,0.46,0.28,0.56,0.55
				c0.1,0.27,0.07,0.53-0.09,0.78c-0.16,0.25-0.4,0.43-0.72,0.54c-0.31,0.1-0.61,0.11-0.89,0c-0.28-0.1-0.47-0.29-0.56-0.56
				C136.27,190.67,136.31,190.42,136.47,190.17z M139.11,192.21c0.61,1.74,1.21,3.48,1.82,5.21c-0.68,0.24-1.35,0.46-2.03,0.68
				c-0.57-1.75-1.14-3.5-1.71-5.25C137.84,192.65,138.48,192.44,139.11,192.21z"/>
			<path class="st11" d="M144.74,193.86c0.22,0.14,0.49,0.21,0.79,0.22c0.3,0.01,0.6-0.05,0.9-0.18c0.25-0.11,0.48-0.24,0.68-0.4
				c0.2-0.16,0.37-0.34,0.51-0.53c0.14-0.19,0.24-0.4,0.29-0.61c0.24,0.54,0.48,1.07,0.72,1.61c-0.15,0.23-0.37,0.47-0.66,0.69
				c-0.29,0.23-0.67,0.44-1.14,0.64c-0.69,0.29-1.36,0.43-2,0.43c-0.64,0-1.19-0.15-1.66-0.44c-0.47-0.29-0.8-0.7-1-1.24
				c-0.21-0.55-0.23-1.08-0.08-1.59c0.15-0.51,0.44-0.99,0.88-1.42c0.43-0.43,0.97-0.78,1.62-1.05c0.45-0.19,0.84-0.31,1.18-0.36
				c0.34-0.05,0.65-0.06,0.91-0.03c0.24,0.54,0.48,1.08,0.73,1.62c-0.19-0.11-0.41-0.17-0.66-0.19c-0.24-0.02-0.49-0.02-0.74,0.02
				c-0.25,0.04-0.48,0.1-0.7,0.2c-0.29,0.12-0.53,0.29-0.73,0.51c-0.2,0.22-0.33,0.46-0.39,0.72c-0.06,0.26-0.04,0.51,0.06,0.76
				C144.36,193.51,144.52,193.72,144.74,193.86z"/>
			<path class="st11" d="M151.64,191.36c0.31-0.01,0.57-0.03,0.79-0.08c0.22-0.05,0.39-0.11,0.53-0.18c0.2-0.1,0.33-0.22,0.39-0.34
				c0.06-0.12,0.06-0.24,0-0.35c-0.06-0.11-0.14-0.18-0.26-0.21c-0.12-0.03-0.29-0.04-0.51-0.02c-0.22,0.02-0.51,0.08-0.87,0.16
				c-0.33,0.06-0.65,0.09-0.96,0.09c-0.31,0.01-0.6-0.05-0.86-0.17c-0.26-0.12-0.47-0.34-0.62-0.66c-0.14-0.3-0.17-0.61-0.08-0.91
				c0.09-0.3,0.27-0.58,0.54-0.85c0.27-0.27,0.61-0.51,1.03-0.72c0.33-0.17,0.66-0.3,0.98-0.38c0.32-0.09,0.63-0.14,0.94-0.17
				c0.31-0.03,0.61-0.04,0.92-0.02c-0.04,0.47-0.08,0.93-0.12,1.4c-0.35-0.06-0.71-0.07-1.08-0.03c-0.38,0.04-0.7,0.13-0.96,0.26
				c-0.18,0.09-0.3,0.19-0.36,0.29c-0.06,0.1-0.07,0.2-0.02,0.29c0.05,0.11,0.15,0.17,0.29,0.19c0.14,0.02,0.33,0.01,0.56-0.04
				c0.23-0.04,0.52-0.09,0.85-0.15c0.35-0.07,0.69-0.11,1.02-0.13c0.32-0.02,0.61,0.02,0.87,0.12c0.26,0.1,0.47,0.3,0.63,0.6
				c0.29,0.52,0.3,1.02,0.05,1.5c-0.25,0.48-0.74,0.91-1.47,1.28c-0.44,0.23-0.87,0.39-1.29,0.5c-0.42,0.11-0.82,0.17-1.21,0.18
				c-0.39,0.01-0.76,0-1.12-0.05c0.11-0.49,0.21-0.99,0.31-1.48C150.98,191.33,151.33,191.36,151.64,191.36z"/>
			<path class="st11" d="M157.6,187.98c0.12-0.32,0.35-0.58,0.68-0.78c0.35-0.21,0.69-0.29,1.02-0.24c0.33,0.05,0.58,0.2,0.74,0.46
				c0.16,0.26,0.19,0.55,0.08,0.87c-0.11,0.32-0.34,0.59-0.71,0.81c-0.34,0.21-0.69,0.28-1.03,0.23c-0.34-0.05-0.59-0.21-0.74-0.47
				C157.5,188.6,157.48,188.3,157.6,187.98z"/>
			<path class="st11" d="M160.61,182.94c0.03-0.54,0.22-1.07,0.56-1.59c0.34-0.52,0.8-0.99,1.38-1.4c0.58-0.41,1.17-0.7,1.77-0.84
				c0.6-0.15,1.16-0.15,1.69-0.02c0.53,0.14,0.97,0.44,1.33,0.9c0.35,0.46,0.52,0.96,0.51,1.51c-0.01,0.55-0.19,1.11-0.53,1.66
				c-0.34,0.55-0.82,1.05-1.44,1.49c-0.62,0.44-1.25,0.73-1.88,0.87c-0.63,0.14-1.21,0.12-1.73-0.05c-0.52-0.17-0.93-0.51-1.25-0.99
				C160.72,184,160.58,183.48,160.61,182.94z M163.52,183.7c0.24,0.08,0.49,0.1,0.75,0.06c0.26-0.05,0.51-0.15,0.76-0.33
				c0.23-0.17,0.42-0.37,0.55-0.6c0.13-0.23,0.2-0.48,0.19-0.73c-0.01-0.25-0.09-0.49-0.26-0.72c-0.17-0.23-0.38-0.39-0.61-0.47
				c-0.24-0.08-0.49-0.1-0.74-0.05c-0.26,0.05-0.5,0.15-0.73,0.32c-0.24,0.17-0.42,0.37-0.54,0.59c-0.13,0.23-0.19,0.46-0.19,0.72
				c0,0.25,0.08,0.5,0.24,0.74C163.09,183.46,163.29,183.62,163.52,183.7z"/>
			<path class="st11" d="M172.65,179.24c-0.58,0.5-1.17,0.98-1.76,1.46c-1.16-1.43-2.32-2.86-3.48-4.29
				c0.56-0.45,1.11-0.92,1.66-1.38C170.26,176.43,171.46,177.83,172.65,179.24z M171.34,175.24c-0.14,0.05-0.28,0.13-0.43,0.26
				c-0.16,0.14-0.28,0.3-0.34,0.49c-0.06,0.18-0.07,0.37-0.02,0.57c0.05,0.2,0.16,0.4,0.33,0.6c-0.27-0.05-0.55-0.09-0.82-0.14
				c-0.28-0.34-0.45-0.7-0.52-1.1c-0.06-0.4-0.03-0.78,0.1-1.16c0.13-0.37,0.33-0.68,0.6-0.93c0.18-0.16,0.38-0.29,0.6-0.38
				c0.22-0.09,0.42-0.12,0.61-0.09c0.11,0.6,0.22,1.2,0.32,1.8C171.62,175.17,171.48,175.19,171.34,175.24z"/>
			<path class="st11" d="M173.44,172.62c-0.06-0.52,0.02-1.02,0.23-1.51c0.21-0.49,0.51-0.93,0.9-1.32c0.4-0.4,0.84-0.69,1.3-0.85
				c0.46-0.16,0.94-0.2,1.42-0.1c0.48,0.1,0.94,0.35,1.38,0.76c0.43,0.41,0.71,0.85,0.83,1.33c0.12,0.48,0.1,0.97-0.07,1.46
				c-0.16,0.49-0.46,0.95-0.89,1.38c-0.41,0.41-0.88,0.73-1.4,0.93c-0.52,0.21-1.04,0.27-1.56,0.19c-0.52-0.08-0.99-0.35-1.41-0.8
				C173.74,173.63,173.5,173.14,173.44,172.62z M178.13,174.76c0.18,0.14,0.37,0.21,0.58,0.22c0.21,0.01,0.42-0.05,0.65-0.16
				c0.23-0.12,0.45-0.29,0.66-0.5c0.24-0.24,0.41-0.5,0.52-0.78c0.11-0.28,0.14-0.56,0.08-0.83c-0.05-0.28-0.2-0.53-0.44-0.76
				c-1.3-1.24-2.61-2.48-3.91-3.73c0.5-0.52,0.99-1.05,1.47-1.58c1.33,1.21,2.66,2.42,3.99,3.63c0.52,0.47,0.82,0.99,0.89,1.56
				c0.07,0.57-0.03,1.15-0.3,1.74c-0.27,0.59-0.68,1.16-1.21,1.7c-0.64,0.65-1.25,1.11-1.82,1.37c-0.57,0.26-1.09,0.36-1.56,0.29
				c-0.47-0.07-0.89-0.26-1.26-0.58C177.03,175.82,177.58,175.29,178.13,174.76z M176.57,172.78c0.25,0.04,0.51,0,0.76-0.1
				c0.26-0.11,0.49-0.27,0.71-0.49c0.19-0.19,0.33-0.41,0.44-0.66c0.1-0.25,0.14-0.51,0.11-0.76c-0.03-0.26-0.15-0.49-0.37-0.69
				c-0.16-0.15-0.34-0.25-0.53-0.3c-0.19-0.05-0.38-0.05-0.57-0.02c-0.19,0.04-0.37,0.1-0.54,0.2c-0.17,0.1-0.33,0.21-0.46,0.35
				c-0.21,0.21-0.37,0.45-0.47,0.7c-0.1,0.25-0.14,0.5-0.11,0.75c0.03,0.25,0.15,0.48,0.35,0.68
				C176.1,172.62,176.32,172.74,176.57,172.78z"/>
		</g>
	</g>
	<g>
		<g>
			<path class="st11" d="M49.57,31.32c0.47-0.41,1.03-0.61,1.67-0.61c0.67,0,1.23,0.2,1.69,0.61c0.46,0.4,0.69,0.93,0.69,1.58
				s-0.23,1.18-0.69,1.59c-0.46,0.41-1.02,0.62-1.69,0.62c-0.65,0-1.21-0.21-1.67-0.62c-0.47-0.41-0.7-0.94-0.7-1.59
				S49.1,31.73,49.57,31.32z M53.22,37.57v12.42h-3.94V37.57H53.22z"/>
			<path class="st11" d="M60.53,49.99h-4.02V37.57h4.02V49.99z M63.44,41.27c-0.24-0.13-0.54-0.19-0.9-0.19
				c-0.4,0-0.75,0.11-1.05,0.32c-0.31,0.22-0.54,0.53-0.7,0.94c-0.16,0.41-0.24,0.92-0.24,1.51l-0.97-1.43
				c0-0.99,0.19-1.87,0.58-2.65c0.39-0.77,0.9-1.39,1.53-1.84c0.63-0.45,1.29-0.67,1.97-0.67c0.45,0,0.88,0.09,1.3,0.27
				c0.41,0.18,0.73,0.43,0.95,0.76l-1.75,3.48C63.91,41.57,63.68,41.4,63.44,41.27z"/>
			<path class="st11" d="M67.74,40.35c0.61-0.97,1.46-1.73,2.54-2.27c1.08-0.54,2.29-0.81,3.64-0.81c1.35,0,2.56,0.27,3.63,0.81
				c1.07,0.54,1.92,1.3,2.54,2.27c0.62,0.97,0.93,2.12,0.93,3.43c0,1.3-0.31,2.43-0.93,3.4c-0.62,0.97-1.47,1.73-2.54,2.27
				c-1.07,0.54-2.28,0.81-3.63,0.81c-1.35,0-2.56-0.27-3.64-0.81s-1.93-1.3-2.54-2.27c-0.61-0.97-0.92-2.11-0.92-3.4
				C66.82,42.47,67.13,41.32,67.74,40.35z M71.41,45.44c0.27,0.46,0.62,0.81,1.05,1.07c0.43,0.25,0.92,0.38,1.46,0.38
				c0.52,0,1-0.13,1.44-0.38s0.79-0.61,1.05-1.07c0.26-0.46,0.39-1.01,0.39-1.66s-0.13-1.21-0.39-1.67
				c-0.26-0.47-0.61-0.83-1.05-1.08s-0.92-0.38-1.44-0.38c-0.54,0-1.03,0.13-1.46,0.38c-0.43,0.25-0.78,0.61-1.05,1.08
				c-0.27,0.47-0.41,1.03-0.41,1.67S71.14,44.98,71.41,45.44z"/>
			<path class="st11" d="M91.08,40.73c-0.28-0.4-0.74-0.59-1.39-0.59c-0.43,0-0.81,0.09-1.13,0.27c-0.32,0.18-0.58,0.44-0.76,0.78
				s-0.27,0.76-0.27,1.24v7.56h-4.1V37.57h4.1v1.86c0.36-0.68,0.85-1.21,1.47-1.59c0.62-0.38,1.39-0.57,2.31-0.57
				c1.55,0,2.67,0.41,3.38,1.24c0.7,0.83,1.05,1.99,1.05,3.48v7.99H91.5v-7.56C91.5,41.69,91.36,41.13,91.08,40.73z"/>
			<path class="st11" d="M110.97,49.99h-4.02V37.57h4.02V49.99z M113.87,41.27c-0.24-0.13-0.54-0.19-0.9-0.19
				c-0.4,0-0.75,0.11-1.05,0.32c-0.31,0.22-0.54,0.53-0.7,0.94c-0.16,0.41-0.24,0.92-0.24,1.51L110,42.43
				c0-0.99,0.19-1.87,0.58-2.65c0.39-0.77,0.9-1.39,1.53-1.84c0.63-0.45,1.29-0.67,1.97-0.67c0.45,0,0.88,0.09,1.3,0.27
				c0.41,0.18,0.73,0.43,0.95,0.76l-1.75,3.48C114.34,41.57,114.11,41.4,113.87,41.27z"/>
			<path class="st11" d="M120.57,49.46c-1.05-0.53-1.87-1.28-2.44-2.25c-0.58-0.97-0.86-2.12-0.86-3.43c0-1.33,0.28-2.48,0.84-3.46
				c0.56-0.97,1.36-1.72,2.42-2.24c1.05-0.52,2.3-0.78,3.74-0.78c1.44,0,2.65,0.25,3.64,0.74s1.75,1.21,2.27,2.15
				c0.52,0.94,0.78,2.07,0.78,3.4c0,0.2,0,0.39,0,0.58s-0.02,0.35-0.05,0.47h-11.34v-2.27h7.67l-0.97,1.24
				c0.09-0.13,0.17-0.28,0.23-0.47c0.06-0.19,0.09-0.35,0.09-0.47c0-0.54-0.1-1.01-0.3-1.4c-0.2-0.4-0.48-0.7-0.84-0.92
				c-0.36-0.22-0.78-0.32-1.27-0.32c-0.61,0-1.13,0.13-1.54,0.4c-0.42,0.27-0.72,0.68-0.93,1.23c-0.21,0.55-0.32,1.24-0.34,2.07
				c0,0.76,0.11,1.4,0.32,1.94s0.54,0.95,0.97,1.23c0.43,0.28,0.96,0.42,1.59,0.42c0.72,0,1.34-0.14,1.85-0.41
				c0.51-0.27,0.92-0.67,1.23-1.21l3.65,0.89c-0.65,1.22-1.53,2.14-2.63,2.75c-1.11,0.61-2.45,0.92-4.04,0.92
				C122.87,50.26,121.62,50,120.57,49.46z"/>
			<path class="st11" d="M133.86,31.32c0.47-0.41,1.03-0.61,1.67-0.61c0.67,0,1.23,0.2,1.69,0.61c0.46,0.4,0.69,0.93,0.69,1.58
				s-0.23,1.18-0.69,1.59c-0.46,0.41-1.02,0.62-1.69,0.62c-0.65,0-1.21-0.21-1.67-0.62c-0.47-0.41-0.7-0.94-0.7-1.59
				S133.4,31.73,133.86,31.32z M137.51,37.57v12.42h-3.94V37.57H137.51z"/>
			<path class="st11" d="M140.92,40.11c0.57-0.94,1.3-1.64,2.2-2.11c0.9-0.47,1.85-0.7,2.86-0.7c1.04,0,1.97,0.25,2.77,0.74
				c0.8,0.5,1.43,1.21,1.9,2.15c0.47,0.94,0.7,2.08,0.7,3.43c0,1.33-0.23,2.47-0.7,3.42c-0.47,0.94-1.1,1.67-1.9,2.16
				c-0.8,0.5-1.72,0.74-2.77,0.74c-1.01,0-1.96-0.24-2.86-0.72c-0.9-0.48-1.63-1.18-2.2-2.12c-0.57-0.94-0.85-2.1-0.85-3.48
				C140.07,42.22,140.36,41.05,140.92,40.11z M144.29,50.88c0.05,0.5,0.2,0.93,0.45,1.27c0.24,0.34,0.57,0.6,0.99,0.77
				c0.41,0.17,0.88,0.26,1.4,0.26c0.58,0,1.1-0.13,1.57-0.39c0.47-0.26,0.84-0.65,1.12-1.16c0.28-0.51,0.42-1.15,0.42-1.9V37.57
				h3.92v12.15c0,1.58-0.31,2.87-0.93,3.86c-0.62,0.99-1.44,1.71-2.47,2.17c-1.03,0.46-2.18,0.69-3.46,0.69
				c-1.53,0-2.79-0.23-3.79-0.7c-1-0.47-1.75-1.12-2.25-1.96c-0.5-0.84-0.8-1.8-0.89-2.9H144.29z M144.77,45.25
				c0.27,0.46,0.63,0.81,1.08,1.04c0.45,0.23,0.95,0.35,1.49,0.35c0.47,0,0.92-0.11,1.36-0.34c0.44-0.22,0.81-0.56,1.09-1.01
				c0.29-0.45,0.43-1.01,0.43-1.67c0-0.5-0.08-0.94-0.26-1.32c-0.17-0.38-0.4-0.69-0.67-0.95c-0.28-0.25-0.59-0.44-0.93-0.57
				c-0.34-0.13-0.68-0.19-1.03-0.19c-0.54,0-1.04,0.12-1.49,0.35s-0.81,0.58-1.08,1.03c-0.27,0.45-0.4,1-0.4,1.65
				C144.37,44.25,144.5,44.79,144.77,45.25z"/>
			<path class="st11" d="M164.87,40.73c-0.28-0.4-0.74-0.59-1.39-0.59c-0.43,0-0.81,0.09-1.13,0.27c-0.32,0.18-0.58,0.44-0.76,0.78
				s-0.27,0.76-0.27,1.24v7.56h-4.1V37.57h4.1v1.86c0.36-0.68,0.85-1.21,1.47-1.59c0.62-0.38,1.39-0.57,2.31-0.57
				c1.55,0,2.67,0.41,3.38,1.24c0.7,0.83,1.05,1.99,1.05,3.48v7.99h-4.24v-7.56C165.29,41.69,165.15,41.13,164.87,40.73z"/>
		</g>
	</g>
</g>
<g id="Layer_2" class="st13">
</g>
</svg>
